<mxfile host="Electron" modified="2024-07-10T13:35:06.285Z" agent="Mozilla/5.0 (Windows NT 10.0; Win64; x64) AppleWebKit/537.36 (KHTML, like Gecko) draw.io/24.2.5 Chrome/120.0.6099.109 Electron/28.1.0 Safari/537.36" etag="H5usw69xgTPoFVvhfHYf" version="24.2.5" type="device">
  <diagram name="Page-1" id="0EtKFH_yeUswPPRqUbHq">
    <mxGraphModel dx="2074" dy="1205" grid="1" gridSize="10" guides="1" tooltips="1" connect="1" arrows="1" fold="1" page="1" pageScale="1" pageWidth="827" pageHeight="1169" math="0" shadow="0">
      <root>
        <mxCell id="0" />
        <mxCell id="1" parent="0" />
        <mxCell id="QSqcfk-7Tip9ZLl0hiTW-13" value="" style="rounded=0;whiteSpace=wrap;html=1;fillColor=#ffe6cc;strokeColor=#d79b00;" parent="1" vertex="1">
          <mxGeometry x="37" y="360" width="593" height="410" as="geometry" />
        </mxCell>
        <mxCell id="QSqcfk-7Tip9ZLl0hiTW-1" value="GNM (Application)" style="rounded=0;whiteSpace=wrap;html=1;fontSize=15;fontStyle=1;fillColor=#f8cecc;strokeColor=#b85450;" parent="1" vertex="1">
          <mxGeometry x="60" y="390" width="230" height="40" as="geometry" />
        </mxCell>
        <mxCell id="QSqcfk-7Tip9ZLl0hiTW-2" value="User Mode Driver" style="rounded=0;whiteSpace=wrap;html=1;fontSize=15;fontStyle=1;fillColor=#e1d5e7;strokeColor=#9673a6;opacity=50;" parent="1" vertex="1">
          <mxGeometry x="60" y="500" width="230" height="40" as="geometry" />
        </mxCell>
        <mxCell id="QSqcfk-7Tip9ZLl0hiTW-3" value="Operating System" style="rounded=0;whiteSpace=wrap;html=1;fontSize=15;fontStyle=1;fillColor=#f8cecc;strokeColor=#b85450;" parent="1" vertex="1">
          <mxGeometry x="60" y="610" width="230" height="40" as="geometry" />
        </mxCell>
        <mxCell id="QSqcfk-7Tip9ZLl0hiTW-4" value="Kernel Mode Driver" style="rounded=0;whiteSpace=wrap;html=1;fontSize=15;fontStyle=1;fillColor=#e1d5e7;strokeColor=#9673a6;opacity=50;" parent="1" vertex="1">
          <mxGeometry x="60" y="720" width="230" height="40" as="geometry" />
        </mxCell>
        <mxCell id="QSqcfk-7Tip9ZLl0hiTW-7" value="What We Do?" style="text;html=1;align=left;verticalAlign=middle;whiteSpace=wrap;rounded=0;fontStyle=1;fontSize=20;" parent="1" vertex="1">
          <mxGeometry x="405" y="615" width="160" height="30" as="geometry" />
        </mxCell>
        <mxCell id="QSqcfk-7Tip9ZLl0hiTW-14" value="" style="shape=singleArrow;direction=south;whiteSpace=wrap;html=1;fillColor=#fff2cc;strokeColor=#d6b656;dashed=1;opacity=50;" parent="1" vertex="1">
          <mxGeometry x="160" y="440" width="30" height="50" as="geometry" />
        </mxCell>
        <mxCell id="QSqcfk-7Tip9ZLl0hiTW-15" value="" style="shape=singleArrow;direction=south;whiteSpace=wrap;html=1;fillColor=#fff2cc;strokeColor=#d6b656;dashed=1;opacity=50;" parent="1" vertex="1">
          <mxGeometry x="160" y="550" width="30" height="50" as="geometry" />
        </mxCell>
        <mxCell id="QSqcfk-7Tip9ZLl0hiTW-17" value="" style="shape=singleArrow;direction=south;whiteSpace=wrap;html=1;fillColor=#fff2cc;strokeColor=#d6b656;dashed=1;opacity=50;" parent="1" vertex="1">
          <mxGeometry x="160" y="660" width="30" height="50" as="geometry" />
        </mxCell>
        <mxCell id="xFwlvKS5Uei29x-foI7g-2" value="Custom GNM Driver" style="rounded=0;whiteSpace=wrap;html=1;fontSize=15;fontStyle=1;fillColor=#f8cecc;strokeColor=#b85450;" vertex="1" parent="1">
          <mxGeometry x="370" y="500" width="230" height="40" as="geometry" />
        </mxCell>
        <mxCell id="xFwlvKS5Uei29x-foI7g-3" value="Kernel Mode Driver Simulation" style="rounded=0;whiteSpace=wrap;html=1;fontSize=15;fontStyle=1;fillColor=#f8cecc;strokeColor=#b85450;" vertex="1" parent="1">
          <mxGeometry x="370" y="720" width="230" height="40" as="geometry" />
        </mxCell>
        <mxCell id="xFwlvKS5Uei29x-foI7g-6" value="" style="html=1;shadow=0;dashed=0;align=center;verticalAlign=middle;shape=mxgraph.arrows2.bendArrow;dy=5.33;dx=22;notch=0;arrowHead=46.67;rounded=0;direction=south;fillColor=#fff2cc;strokeColor=#d6b656;" vertex="1" parent="1">
          <mxGeometry x="326" y="400" width="176" height="90" as="geometry" />
        </mxCell>
        <mxCell id="xFwlvKS5Uei29x-foI7g-9" value="" style="shape=flexArrow;endArrow=classic;html=1;rounded=0;fillColor=#fff2cc;strokeColor=#d6b656;" edge="1" parent="1">
          <mxGeometry width="50" height="50" relative="1" as="geometry">
            <mxPoint x="360" y="550" as="sourcePoint" />
            <mxPoint x="300" y="600" as="targetPoint" />
          </mxGeometry>
        </mxCell>
        <mxCell id="xFwlvKS5Uei29x-foI7g-10" value="" style="shape=flexArrow;endArrow=classic;html=1;rounded=0;fillColor=#fff2cc;strokeColor=#d6b656;" edge="1" parent="1">
          <mxGeometry width="50" height="50" relative="1" as="geometry">
            <mxPoint x="310" y="660" as="sourcePoint" />
            <mxPoint x="360" y="710" as="targetPoint" />
          </mxGeometry>
        </mxCell>
      </root>
    </mxGraphModel>
  </diagram>
</mxfile>
